/* XPM */
static char * bottom_right_active_xpm[] = {
"1 6 2 1",
" 	c None",
".	c #888888",
".",
".",
".",
".",
".",
" "};
