/* XPM */
static char * bottom_active_xpm[] = {
"10 6 3 1",
" 	c None",
".	c #979797",
"+	c #888888",
"..........",
"..........",
"..........",
"..........",
"..........",
"++++++++++"};
