/* XPM */
static char * close_active_xpm[] = {
"22 23 165 2",
"  	c None",
". 	c #9D9D9D",
"+ 	c #636363",
"@ 	c #323232",
"# 	c #101010",
"$ 	c #767676",
"% 	c #302F2F",
"& 	c #4D4546",
"* 	c #7F7676",
"= 	c #999090",
"- 	c #989090",
"; 	c #747575",
"> 	c #201A1A",
", 	c #685556",
"' 	c #AE9B9C",
") 	c #D4CBCC",
"! 	c #E5DEDE",
"~ 	c #E6E0E0",
"{ 	c #D6CDCD",
"] 	c #AD9B9C",
"^ 	c #695556",
"/ 	c #211A1A",
"( 	c #757676",
"_ 	c #9C9C9C",
": 	c #352A2B",
"< 	c #5C3637",
"[ 	c #9F6A6D",
"} 	c #C99899",
"| 	c #DCB0B2",
"1 	c #DFB4B5",
"2 	c #DEB4B5",
"3 	c #CA9799",
"4 	c #5E3738",
"5 	c #382B2D",
"6 	c #6D6D6D",
"7 	c #4C1C1F",
"8 	c #89353A",
"9 	c #A93C3E",
"0 	c #BD534F",
"a 	c #C3635D",
"b 	c #C5635E",
"c 	c #C5635D",
"d 	c #C2625C",
"e 	c #BE524F",
"f 	c #89363A",
"g 	c #4E1D20",
"h 	c #6E6E6E",
"i 	c #473636",
"j 	c #75252A",
"k 	c #A02424",
"l 	c #B12623",
"m 	c #BD3730",
"n 	c #C1453C",
"o 	c #C34A43",
"p 	c #C44A43",
"q 	c #C2463C",
"r 	c #BD3630",
"s 	c #B32523",
"t 	c #9F2324",
"u 	c #75262A",
"v 	c #4B3638",
"w 	c #441012",
"x 	c #93262C",
"y 	c #B42825",
"z 	c #C03830",
"A 	c #C94A41",
"B 	c #D15950",
"C 	c #D56056",
"D 	c #D66056",
"E 	c #D45A51",
"F 	c #CC4B44",
"G 	c #C3392F",
"H 	c #B72926",
"I 	c #471113",
"J 	c #580F13",
"K 	c #A52A2B",
"L 	c #C4413B",
"M 	c #D25148",
"N 	c #DC635A",
"O 	c #E56F69",
"P 	c #EA7870",
"Q 	c #EB7971",
"R 	c #E7746B",
"S 	c #E0655C",
"T 	c #D65349",
"U 	c #CA423B",
"V 	c #A5292A",
"W 	c #590F13",
"X 	c #6C3C3E",
"Y 	c #AA312A",
"Z 	c #CE554B",
"` 	c #E2685D",
" .	c #F0766E",
"..	c #F5847D",
"+.	c #F88D84",
"@.	c #F6857E",
"#.	c #F1786E",
"$.	c #E5695F",
"%.	c #D2554B",
"&.	c #AA3129",
"*.	c #6E3C3E",
"=.	c #867474",
"-.	c #9E2924",
";.	c #D66059",
">.	c #EE786F",
",.	c #F9857C",
"'.	c #F9938A",
").	c #FA9D93",
"!.	c #FA9E94",
"~.	c #F9958C",
"{.	c #F9877E",
"].	c #EF796F",
"^.	c #DA615A",
"/.	c #A12824",
"(.	c #877474",
"_.	c #B1AEAE",
":.	c #803635",
"<.	c #C75651",
"[.	c #F0817C",
"}.	c #F8958C",
"|.	c #FAA197",
"1.	c #FAA89F",
"2.	c #FAABA1",
"3.	c #FAA499",
"4.	c #F8968E",
"5.	c #F4847D",
"6.	c #CF5A52",
"7.	c #813534",
"8.	c #B0AFAF",
"9.	c #C9C9C9",
"0.	c #978D8E",
"a.	c #8E2D28",
"b.	c #D87069",
"c.	c #EF9890",
"d.	c #F5A9A0",
"e.	c #F9B5AA",
"f.	c #F9B6AC",
"g.	c #F6ADA3",
"h.	c #F09B93",
"i.	c #DF776F",
"j.	c #92302B",
"k.	c #D4D4D4",
"l.	c #979090",
"m.	c #85544F",
"n.	c #AB6058",
"o.	c #CA887F",
"p.	c #DF9F97",
"q.	c #E2A49A",
"r.	c #CD8A83",
"s.	c #AF645D",
"t.	c #895750",
"u.	c #979191",
"v.	c #C4C3C3",
"w.	c #928685",
"x.	c #865D59",
"y.	c #7E4E46",
"z.	c #804E46",
"A.	c #8B605C",
"B.	c #918484",
"C.	c #C6C6C6",
"D.	c #CACACA",
"E.	c #D9D9D9",
"F.	c #E0E0E0",
"G.	c #E1E1E1",
"H.	c #DEDEDE",
"                                            ",
"                                            ",
"                                            ",
"                                            ",
"                                            ",
"                                            ",
"              . + @ # # @ + .               ",
"            $ % & * = - * & % $             ",
"          ; > , ' ) ! ~ { ] ^ / (           ",
"        _ : < [ } | 1 2 | 3 [ 4 5 _         ",
"        6 7 8 9 0 a b c d e 9 f g h         ",
"        i j k l m n o p q r s t u v         ",
"        w x y z A B C D E F G H x I         ",
"        J K L M N O P Q R S T U V W         ",
"        X Y Z `  ...+.+.@.#.$.%.&.*.        ",
"        =.-.;.>.,.'.).!.~.{.].^./.(.        ",
"        _.:.<.[.}.|.1.2.3.4.5.6.7.8.        ",
"        9.0.a.b.c.d.e.f.g.h.i.j.0.9.        ",
"          k.l.m.n.o.p.q.r.s.t.u.k.          ",
"            k.v.w.x.y.z.A.B.C.k.            ",
"              D.E.F.G.G.H.E.D.              ",
"                                            ",
"                                            "};
