/* XPM */
static char * close_pressed_xpm[] = {
"22 23 92 2",
"  	c None",
". 	c #212121",
"+ 	c #000000",
"@ 	c #050000",
"# 	c #1E1717",
"$ 	c #1D1717",
"% 	c #2E1F20",
"& 	c #4D4647",
"* 	c #5C5656",
"= 	c #5C5757",
"- 	c #4F4848",
"; 	c #2D1F20",
"> 	c #202020",
", 	c #240000",
"' 	c #411B1E",
") 	c #522F32",
"! 	c #543234",
"~ 	c #411A1E",
"{ 	c #1F0000",
"] 	c #310000",
"^ 	c #300000",
"/ 	c #030000",
"( 	c #110000",
"_ 	c #380000",
": 	c #130000",
"< 	c #220000",
"[ 	c #080000",
"} 	c #0F0000",
"| 	c #390000",
"1 	c #290000",
"2 	c #3C0000",
"3 	c #150000",
"4 	c #290403",
"5 	c #260000",
"6 	c #3D0000",
"7 	c #3A0000",
"8 	c #320000",
"9 	c #410000",
"0 	c #430000",
"a 	c #3E0000",
"b 	c #340000",
"c 	c #4B0000",
"d 	c #0E0000",
"e 	c #4E0000",
"f 	c #400000",
"g 	c #560000",
"h 	c #490000",
"i 	c #170000",
"j 	c #190000",
"k 	c #4A0000",
"l 	c #570000",
"m 	c #450000",
"n 	c #100000",
"o 	c #312E2E",
"p 	c #180000",
"q 	c #590002",
"r 	c #620C14",
"s 	c #661D1C",
"t 	c #672422",
"u 	c #672824",
"v 	c #66201E",
"w 	c #630E16",
"x 	c #5D0004",
"y 	c #302F2F",
"z 	c #444444",
"A 	c #1C1516",
"B 	c #5C1417",
"C 	c #632623",
"D 	c #68312B",
"E 	c #68322D",
"F 	c #642A25",
"G 	c #5D1819",
"H 	c #280000",
"I 	c #4D4D4D",
"J 	c #1C1717",
"K 	c #140000",
"L 	c #2D0000",
"M 	c #3E0A05",
"N 	c #511F1C",
"O 	c #54241E",
"P 	c #410C0B",
"Q 	c #2E0000",
"R 	c #1C1818",
"S 	c #403F3F",
"T 	c #190E0D",
"U 	c #180C0B",
"V 	c #424242",
"W 	c #454545",
"X 	c #525252",
"Y 	c #575757",
"Z 	c #585858",
"` 	c #565656",
"                                            ",
"                                            ",
"                                            ",
"                                            ",
"                                            ",
"                                            ",
"              . + + + + + + .               ",
"            + + + @ # $ @ + + +             ",
"          + + + % & * = - ; + + +           ",
"        > + + , ' ) ! ! ) ~ , + + >         ",
"        + + { ] ^ / + + + ^ ] { + +         ",
"        + ( ] _ : : , < [ } | ^ ( +         ",
"        + 1 | 2 + 3 4 5 / + 6 7 1 +         ",
"        + 8 2 9 + + + + + + 0 a 8 +         ",
"        + b a c d + + + + ( e f b +         ",
"        } ^ 0 g h i + + j k l m ] n         ",
"        o p 7 q r s t u v w x a j y         ",
"        z A 5 m B C D E F G c H A z         ",
"          I J K L M N O P Q p R I           ",
"            I S T : d ( i U V I             ",
"              W X Y Z Z ` X W               ",
"                                            ",
"                                            "};
