/* XPM */
static char * close_active_xpm[] = {
"22 23 103 2",
"  	c None",
". 	c #212121",
"+ 	c #000000",
"@ 	c #050000",
"# 	c #1E1717",
"$ 	c #1D1717",
"% 	c #2E1F20",
"& 	c #4D4647",
"* 	c #5C5656",
"= 	c #5C5757",
"- 	c #4F4848",
"; 	c #2D1F20",
"> 	c #202020",
", 	c #240000",
"' 	c #411B1E",
") 	c #522F32",
"! 	c #543234",
"~ 	c #411A1E",
"{ 	c #1F0000",
"] 	c #310000",
"^ 	c #360000",
"/ 	c #370000",
"( 	c #390000",
"_ 	c #110000",
": 	c #380000",
"< 	c #3B0000",
"[ 	c #3A0000",
"} 	c #300000",
"| 	c #290000",
"1 	c #3C0000",
"2 	c #3D0000",
"3 	c #400000",
"4 	c #420000",
"5 	c #430000",
"6 	c #410000",
"7 	c #3E0000",
"8 	c #320000",
"9 	c #470000",
"0 	c #4E0000",
"a 	c #530000",
"b 	c #540000",
"c 	c #510000",
"d 	c #4A0000",
"e 	c #340000",
"f 	c #4B0000",
"g 	c #580000",
"h 	c #5D0004",
"i 	c #61000D",
"j 	c #5E0005",
"k 	c #0F0000",
"l 	c #560000",
"m 	c #600002",
"n 	c #630812",
"o 	c #651819",
"p 	c #65191A",
"q 	c #630C14",
"r 	c #610005",
"s 	c #570000",
"t 	c #450000",
"u 	c #100000",
"v 	c #312E2E",
"w 	c #180000",
"x 	c #590002",
"y 	c #620C14",
"z 	c #661D1C",
"A 	c #672422",
"B 	c #672824",
"C 	c #66201E",
"D 	c #630E16",
"E 	c #190000",
"F 	c #302F2F",
"G 	c #444444",
"H 	c #1C1516",
"I 	c #260000",
"J 	c #5C1417",
"K 	c #632623",
"L 	c #68312B",
"M 	c #68322D",
"N 	c #642A25",
"O 	c #5D1819",
"P 	c #280000",
"Q 	c #4D4D4D",
"R 	c #1C1717",
"S 	c #140000",
"T 	c #2D0000",
"U 	c #3E0A05",
"V 	c #511F1C",
"W 	c #54241E",
"X 	c #410C0B",
"Y 	c #2E0000",
"Z 	c #1C1818",
"` 	c #403F3F",
" .	c #190E0D",
"..	c #130000",
"+.	c #0E0000",
"@.	c #170000",
"#.	c #180C0B",
"$.	c #424242",
"%.	c #454545",
"&.	c #525252",
"*.	c #575757",
"=.	c #585858",
"-.	c #565656",
"                                            ",
"                                            ",
"                                            ",
"                                            ",
"                                            ",
"                                            ",
"              . + + + + + + .               ",
"            + + + @ # $ @ + + +             ",
"          + + + % & * = - ; + + +           ",
"        > + + , ' ) ! ! ) ~ , + + >         ",
"        + + { ] ^ / ( ( / / ] { + +         ",
"        + _ ] : < [ [ [ [ < ( } _ +         ",
"        + | ( 1 2 3 4 5 6 7 2 [ | +         ",
"        + 8 1 6 9 0 a b c d 5 7 8 +         ",
"        + e 7 f g h i i j g 0 3 e +         ",
"        k } 5 l m n o p q r s t ] u         ",
"        v w [ x y z A B C D h 7 E F         ",
"        G H I t J K L M N O f P H G         ",
"          Q R S T U V W X Y w Z Q           ",
"            Q `  ...+._ @.#.$.Q             ",
"              %.&.*.=.=.-.&.%.              ",
"                                            ",
"                                            "};
