/* XPM */
static char * hide_inactive_xpm[] = {
"22 23 111 2",
"  	g None",
". 	g #9C9C9C",
"+ 	g #636363",
"@ 	g #343434",
"# 	g #131313",
"$ 	g #757575",
"% 	g #313131",
"& 	g #494949",
"* 	g #7A7A7A",
"= 	g #949494",
"- 	g #7B7B7B",
"; 	g #4C4C4C",
"> 	g #242424",
", 	g #5D5D5D",
"' 	g #A4A4A4",
") 	g #D0D0D0",
"! 	g #E0E0E0",
"~ 	g #767676",
"{ 	g #2D2D2D",
"] 	g #4A4A4A",
"^ 	g #898989",
"/ 	g #B9B9B9",
"( 	g #D2D2D2",
"_ 	g #D5D5D5",
": 	g #4D4D4D",
"< 	g #2E2E2E",
"[ 	g #6E6E6E",
"} 	g #6A6A6A",
"| 	g #8C8C8C",
"1 	g #A3A3A3",
"2 	g #ACACAC",
"3 	g #ADADAD",
"4 	g #ABABAB",
"5 	g #A2A2A2",
"6 	g #353535",
"7 	g #6F6F6F",
"8 	g #3E3E3E",
"9 	g #4F4F4F",
"0 	g #7D7D7D",
"a 	g #8F8F8F",
"b 	g #9A9A9A",
"c 	g #A5A5A5",
"d 	g #A6A6A6",
"e 	g #9B9B9B",
"f 	g #909090",
"g 	g #7F7F7F",
"h 	g #575757",
"i 	g #2A2A2A",
"j 	g #727272",
"k 	g #919191",
"l 	g #9E9E9E",
"m 	g #A9A9A9",
"n 	g #B2B2B2",
"o 	g #B7B7B7",
"p 	g #B8B8B8",
"q 	g #B5B5B5",
"r 	g #A0A0A0",
"s 	g #747474",
"t 	g #2B2B2B",
"u 	g #858585",
"v 	g #BEBEBE",
"w 	g #C5C5C5",
"x 	g #C8C8C8",
"y 	g #CACACA",
"z 	g #C1C1C1",
"A 	g #B3B3B3",
"B 	g #888888",
"C 	g #5C5C5C",
"D 	g #8A8A8A",
"E 	g #B1B1B1",
"F 	g #C2C2C2",
"G 	g #CCCCCC",
"H 	g #D9D9D9",
"I 	g #D7D7D7",
"J 	g #CDCDCD",
"K 	g #B4B4B4",
"L 	g #8D8D8D",
"M 	g #818181",
"N 	g #838383",
"O 	g #CBCBCB",
"P 	g #E8E8E8",
"Q 	g #EAEAEA",
"R 	g #E3E3E3",
"S 	g #BABABA",
"T 	g #AFAFAF",
"U 	g #6B6B6B",
"V 	g #D1D1D1",
"W 	g #EEEEEE",
"X 	g #F3F3F3",
"Y 	g #F5F5F5",
"Z 	g #EFEFEF",
"` 	g #E6E6E6",
" .	g #D4D4D4",
"..	g #B0B0B0",
"+.	g #6C6C6C",
"@.	g #C9C9C9",
"#.	g #777777",
"$.	g #F0F0F0",
"%.	g #E5E5E5",
"&.	g #7C7C7C",
"*.	g #959595",
"=.	g #797979",
"-.	g #9F9F9F",
";.	g #DDDDDD",
">.	g #A8A8A8",
",.	g #7E7E7E",
"'.	g #C3C3C3",
").	g #828282",
"!.	g #C6C6C6",
"~.	g #E1E1E1",
"{.	g #DEDEDE",
"                                            ",
"                                            ",
"                                            ",
"                                            ",
"                                            ",
"                                            ",
"              . + @ # # @ + .               ",
"            $ % & * = = - ; % $             ",
"          $ > , ' ) ! ! ) ' , > ~           ",
"        . { ] ^ / ( _ _ ( / ^ : < .         ",
"        [ { } | 1 2 3 3 4 5 | } 6 7         ",
"        8 9 0 a b 5 c d 1 e f g h 8         ",
"        i j k l m n o p q 4 r = s t         ",
"        8 u 1 n v w x y x z A d B 8         ",
"        C D E F G _ H H I J F K L ,         ",
"        M N o O I ! P Q R H J S N M         ",
"        T U 2 V R W X Y Z `  ...+.T         ",
"        @.= #.S ! W Y Y $.%.w &.= @.        ",
"           .*.=.-.w ;.;.x >.,.*. .          ",
"             .'.a ).&.0 B a !. .            ",
"                H ! ~.~.{.H                 ",
"                                            ",
"                                            "};
