/* XPM */
static char * hide_pressed_xpm[] = {
"22 23 117 2",
"  	c None",
". 	c #202020",
"+ 	c #000000",
"@ 	c #171817",
"# 	c #181917",
"$ 	c #202620",
"% 	c #464947",
"& 	c #555857",
"* 	c #565856",
"= 	c #464A48",
"- 	c #1F2620",
"; 	c #001500",
"> 	c #1E3A1F",
", 	c #384D32",
"' 	c #3E5036",
") 	c #394D32",
"! 	c #1F3B1F",
"~ 	c #001C00",
"{ 	c #072400",
"] 	c #1B1300",
"^ 	c #240000",
"/ 	c #220000",
"( 	c #180C00",
"_ 	c #042200",
": 	c #001100",
"< 	c #002000",
"[ 	c #150F00",
"} 	c #3D2423",
"| 	c #4D3839",
"1 	c #4C3737",
"2 	c #371C1C",
"3 	c #0F0400",
"4 	c #002100",
"5 	c #001300",
"6 	c #000300",
"7 	c #002800",
"8 	c #230000",
"9 	c #412728",
"0 	c #513D3E",
"a 	c #4E3A3A",
"b 	c #371A1C",
"c 	c #1E0000",
"d 	c #002A00",
"e 	c #002200",
"f 	c #001700",
"g 	c #002D00",
"h 	c #003800",
"i 	c #1D0000",
"j 	c #210000",
"k 	c #1F0000",
"l 	c #1A0000",
"m 	c #003A00",
"n 	c #002E00",
"o 	c #001800",
"p 	c #004900",
"q 	c #1D1400",
"r 	c #2E0E0F",
"s 	c #2F1011",
"t 	c #170800",
"u 	c #001D00",
"v 	c #000400",
"w 	c #001400",
"x 	c #033C00",
"y 	c #105200",
"z 	c #204B00",
"A 	c #231E00",
"B 	c #200000",
"C 	c #211A00",
"D 	c #1E4C00",
"E 	c #115200",
"F 	c #004000",
"G 	c #000900",
"H 	c #2E2E2E",
"I 	c #003500",
"J 	c #1C5500",
"K 	c #316A00",
"L 	c #3D7100",
"M 	c #447100",
"N 	c #467100",
"O 	c #3F7100",
"P 	c #326E00",
"Q 	c #1C5A00",
"R 	c #2E2F2D",
"S 	c #444444",
"T 	c #161915",
"U 	c #000800",
"V 	c #074600",
"W 	c #306400",
"X 	c #416D00",
"Y 	c #4E7007",
"Z 	c #4E7009",
"` 	c #446D00",
" .	c #346700",
"..	c #0F5100",
"+.	c #000D00",
"@.	c #4D4D4D",
"#.	c #1A1B16",
"$.	c #000700",
"%.	c #0B2B00",
"&.	c #244800",
"*.	c #395900",
"=.	c #3D5A00",
"-.	c #284800",
";.	c #0C3000",
">.	c #001000",
",.	c #181C17",
"'.	c #3F3F3F",
").	c #12190A",
"!.	c #000E00",
"~.	c #000B00",
"{.	c #14190C",
"].	c #424242",
"^.	c #454545",
"/.	c #525252",
"(.	c #575757",
"_.	c #585858",
":.	c #565656",
"                                            ",
"                                            ",
"                                            ",
"                                            ",
"                                            ",
"                                            ",
"              . + + + + + + .               ",
"            + + + + @ # + + + +             ",
"          + + + $ % & * = - + + +           ",
"        . + + ; > , ' ' ) ! ; + + .         ",
"        + + + ~ { ] ^ / ( _ ~ + + +         ",
"        + + : < [ } | 1 2 3 4 5 + +         ",
"        + 6 4 7 8 9 0 a b c d e 6 +         ",
"        + f g h i j / j k l m n o +         ",
"        + ~ h p q 8 r s / t p m u +         ",
"        v w x y z A / B C D E F ; G         ",
"        H + I J K L M N O P Q h + R         ",
"        S T U V W X Y Z `  ...+.T S         ",
"          @.#.$.%.&.*.=.-.;.>.,.@.          ",
"            @.'.).!.U ~.w {.].@.            ",
"              ^./.(._._.:./.^.              ",
"                                            ",
"                                            "};
