/* XPM */
static char * hide_pressed_xpm[] = {
"22 23 165 2",
"  	c None",
". 	c #9C9C9C",
"+ 	c #636363",
"@ 	c #323232",
"# 	c #101010",
"$ 	c #757575",
"% 	c #2E2E2E",
"& 	c #464646",
"* 	c #767676",
"= 	c #909190",
"- 	c #919290",
"; 	c #474747",
"> 	c #747474",
", 	c #1F1C1F",
"' 	c #575A57",
") 	c #9CA39C",
"! 	c #CBCFCC",
"~ 	c #DDE1E0",
"{ 	c #DEE1DE",
"] 	c #CBD0CD",
"^ 	c #9BA39C",
"/ 	c #585A58",
"( 	c #1E1C1F",
"_ 	c #2A2A2A",
": 	c #3A4A3A",
"< 	c #6D8C6D",
"[ 	c #9DBD9C",
"} 	c #BCD4B3",
"| 	c #C3D8B8",
"1 	c #BDD4B3",
"2 	c #9EBF9C",
"3 	c #6C8C6D",
"4 	c #3A4939",
"5 	c #6D6D6D",
"6 	c #223420",
"7 	c #3E7138",
"8 	c #58943E",
"9 	c #7BA349",
"0 	c #938B60",
"a 	c #A0746E",
"b 	c #9D746B",
"c 	c #8E8559",
"d 	c #78A046",
"e 	c #59943F",
"f 	c #3D7038",
"g 	c #233620",
"h 	c #6E6E6E",
"i 	c #383D36",
"j 	c #2C5E29",
"k 	c #428625",
"l 	c #559B19",
"m 	c #89874B",
"n 	c #C2A2A0",
"o 	c #D5BBBB",
"p 	c #D3B9B9",
"q 	c #BC9896",
"r 	c #827F43",
"s 	c #569D19",
"t 	c #418825",
"u 	c #192F11",
"v 	c #3D7B2B",
"w 	c #589C1C",
"x 	c #69AA1A",
"y 	c #9F786C",
"z 	c #C7A6A6",
"A 	c #D9C1C1",
"B 	c #D6BDBD",
"C 	c #BC9696",
"D 	c #956B5E",
"E 	c #6BAC1A",
"F 	c #5C9F1C",
"G 	c #3D7B2C",
"H 	c #1A3011",
"I 	c #1A3D11",
"J 	c #528D2B",
"K 	c #71B028",
"L 	c #7FBE32",
"M 	c #93675B",
"N 	c #986262",
"O 	c #9A6666",
"P 	c #996464",
"Q 	c #955F5F",
"R 	c #8C5E51",
"S 	c #80C031",
"T 	c #73B128",
"U 	c #528F2B",
"V 	c #1D4110",
"W 	c #435C3C",
"X 	c #5A9425",
"Y 	c #81BD3A",
"Z 	c #93D149",
"` 	c #958D56",
" .	c #9E6C6A",
"..	c #B28787",
"+.	c #B38989",
"@.	c #9B6967",
"#.	c #8B8249",
"$.	c #93D148",
"%.	c #82C03A",
"&.	c #5A9624",
"*.	c #44623C",
"=.	c #767F74",
"-.	c #518A1A",
";.	c #8AC144",
">.	c #A0DB59",
",.	c #A8D362",
"'.	c #A09961",
").	c #9B6D65",
"!.	c #986D61",
"~.	c #9B945B",
"{.	c #A7D460",
"].	c #A1DC5C",
"^.	c #8CC646",
"/.	c #528B1A",
"(.	c #778274",
"_.	c #ADAEAD",
":.	c #4D722D",
"<.	c #7FB93F",
"[.	c #A9DF66",
"}.	c #BFF779",
"|.	c #CBFF83",
"1.	c #D1FF8A",
"2.	c #D3FF8B",
"3.	c #CDFF84",
"4.	c #C1FC7B",
"5.	c #ABE568",
"6.	c #84BD41",
"7.	c #4F742D",
"8.	c #ADAFAC",
"9.	c #C9C9C9",
"0.	c #8F938D",
"a.	c #558025",
"b.	c #95CD55",
"c.	c #BCF07C",
"d.	c #CDFA8C",
"e.	c #DBFD95",
"f.	c #DBFD96",
"g.	c #D0FA8E",
"h.	c #C1F37D",
"i.	c #9FDA59",
"j.	c #5A8425",
"k.	c #D4D4D4",
"l.	c #94958F",
"m.	c #648043",
"n.	c #81AC48",
"o.	c #AACE6B",
"p.	c #C2E282",
"q.	c #C6E486",
"r.	c #AECF72",
"s.	c #87B24C",
"t.	c #698745",
"u.	c #919690",
"v.	c #C3C3C3",
"w.	c #8A9283",
"x.	c #718651",
"y.	c #658138",
"z.	c #668339",
"A.	c #748C53",
"B.	c #8C9284",
"C.	c #C6C6C6",
"D.	c #CACACA",
"E.	c #D9D9D9",
"F.	c #E0E0E0",
"G.	c #E1E1E1",
"H.	c #DEDEDE",
"                                            ",
"                                            ",
"                                            ",
"                                            ",
"                                            ",
"                                            ",
"              . + @ # # @ + .               ",
"            $ % & * = - * ; % $             ",
"          > , ' ) ! ~ { ] ^ / ( $           ",
"        . _ : < [ } | | 1 2 3 4 _ .         ",
"        5 6 7 8 9 0 a b c d e f g h         ",
"        i j k l m n o p q r s t j i         ",
"        u v w x y z A B C D E F G H         ",
"        I J K L M N O P Q R S T U V         ",
"        W X Y Z `  ...+.@.#.$.%.&.*.        ",
"        =.-.;.>.,.'.).!.~.{.].^./.(.        ",
"        _.:.<.[.}.|.1.2.3.4.5.6.7.8.        ",
"        9.0.a.b.c.d.e.f.g.h.i.j.0.9.        ",
"          k.l.m.n.o.p.q.r.s.t.u.k.          ",
"            k.v.w.x.y.z.A.B.C.k.            ",
"              D.E.F.G.G.H.E.D.              ",
"                                            ",
"                                            "};
