/* XPM */
static char * hide_active_xpm[] = {
"22 23 114 2",
"  	c None",
". 	c #202020",
"+ 	c #000000",
"@ 	c #171817",
"# 	c #181917",
"$ 	c #202620",
"% 	c #464947",
"& 	c #555857",
"* 	c #565856",
"= 	c #464A48",
"- 	c #1F2620",
"; 	c #001500",
"> 	c #1E3A1F",
", 	c #384D32",
"' 	c #3E5036",
") 	c #394D32",
"! 	c #1F3B1F",
"~ 	c #001C00",
"{ 	c #002B00",
"] 	c #063000",
"^ 	c #063200",
"/ 	c #063300",
"( 	c #053000",
"_ 	c #002A00",
": 	c #001100",
"< 	c #002000",
"[ 	c #002500",
"} 	c #012B00",
"| 	c #002E00",
"1 	c #002D00",
"2 	c #002700",
"3 	c #002100",
"4 	c #001300",
"5 	c #000300",
"6 	c #002800",
"7 	c #003000",
"8 	c #003A00",
"9 	c #003D00",
"0 	c #003B00",
"a 	c #003300",
"b 	c #002200",
"c 	c #001700",
"d 	c #003800",
"e 	c #004200",
"f 	c #0A4C00",
"g 	c #124F00",
"h 	c #0B4C00",
"i 	c #004500",
"j 	c #001800",
"k 	c #004900",
"l 	c #125100",
"m 	c #1F5A00",
"n 	c #286000",
"o 	c #215D00",
"p 	c #125300",
"q 	c #001D00",
"r 	c #000400",
"s 	c #001400",
"t 	c #033C00",
"u 	c #105200",
"v 	c #205E00",
"w 	c #2C6700",
"x 	c #366E00",
"y 	c #376D00",
"z 	c #2F6B00",
"A 	c #216100",
"B 	c #115200",
"C 	c #004000",
"D 	c #000900",
"E 	c #2E2E2E",
"F 	c #003500",
"G 	c #1C5500",
"H 	c #316A00",
"I 	c #3D7100",
"J 	c #447100",
"K 	c #467100",
"L 	c #3F7100",
"M 	c #326E00",
"N 	c #1C5A00",
"O 	c #2E2F2D",
"P 	c #444444",
"Q 	c #161915",
"R 	c #000800",
"S 	c #074600",
"T 	c #306400",
"U 	c #416D00",
"V 	c #4E7007",
"W 	c #4E7009",
"X 	c #446D00",
"Y 	c #346700",
"Z 	c #0F5100",
"` 	c #000D00",
" .	c #4D4D4D",
"..	c #1A1B16",
"+.	c #000700",
"@.	c #0B2B00",
"#.	c #244800",
"$.	c #395900",
"%.	c #3D5A00",
"&.	c #284800",
"*.	c #0C3000",
"=.	c #001000",
"-.	c #181C17",
";.	c #3F3F3F",
">.	c #12190A",
",.	c #000E00",
"'.	c #000B00",
").	c #14190C",
"!.	c #424242",
"~.	c #454545",
"{.	c #525252",
"].	c #575757",
"^.	c #585858",
"/.	c #565656",
"                                            ",
"                                            ",
"                                            ",
"                                            ",
"                                            ",
"                                            ",
"              . + + + + + + .               ",
"            + + + + @ # + + + +             ",
"          + + + $ % & * = - + + +           ",
"        . + + ; > , ' ' ) ! ; + + .         ",
"        + + + ~ { ] ^ / ( _ ~ + + +         ",
"        + + : < [ } | 1 { 2 3 4 + +         ",
"        + 5 3 6 7 8 9 9 0 a _ b 5 +         ",
"        + c 1 d e f g g h i 8 | j +         ",
"        + ~ d k l m n n o p k 8 q +         ",
"        r s t u v w x y z A B C ; D         ",
"        E + F G H I J K L M N d + O         ",
"        P Q R S T U V W X Y Z ` Q P         ",
"           ...+.@.#.$.%.&.*.=.-. .          ",
"             .;.>.,.R '.s ).!. .            ",
"              ~.{.].^.^./.{.~.              ",
"                                            ",
"                                            "};
