/* XPM */
static char * maximize_pressed_xpm[] = {
"22 23 126 2",
"  	c None",
". 	c #202020",
"+ 	c #000000",
"@ 	c #170000",
"# 	c #251717",
"$ 	c #180000",
"% 	c #110000",
"& 	c #392020",
"* 	c #524847",
"= 	c #5D5656",
"- 	c #100000",
"; 	c #120000",
"> 	c #310400",
", 	c #4E3120",
"' 	c #5D4833",
") 	c #5E4C36",
"! 	c #5E4C35",
"~ 	c #320300",
"{ 	c #300000",
"] 	c #3E0300",
"^ 	c #411200",
"/ 	c #2B0000",
"( 	c #150000",
"_ 	c #2A0000",
": 	c #3F0F00",
"< 	c #3E0500",
"[ 	c #220000",
"} 	c #3B0000",
"| 	c #480400",
"1 	c #2E0000",
"2 	c #2A0400",
"3 	c #3D2223",
"4 	c #3A1E1F",
"5 	c #270000",
"6 	c #2D0000",
"7 	c #490700",
"8 	c #020000",
"9 	c #330000",
"0 	c #4A0500",
"a 	c #551600",
"b 	c #1C0000",
"c 	c #2C0A0A",
"d 	c #442C2D",
"e 	c #402626",
"f 	c #260000",
"g 	c #571800",
"h 	c #4D0A00",
"i 	c #340000",
"j 	c #190000",
"k 	c #3C0000",
"l 	c #561B00",
"m 	c #612A00",
"n 	c #0F0000",
"o 	c #030000",
"p 	c #0C0000",
"q 	c #632B00",
"r 	c #591E00",
"s 	c #3E0000",
"t 	c #1A0000",
"u 	c #130000",
"v 	c #400300",
"w 	c #5D2900",
"x 	c #663A00",
"y 	c #2C0000",
"z 	c #1E0000",
"A 	c #1F0000",
"B 	c #0D0000",
"C 	c #290000",
"D 	c #5F2D00",
"E 	c #430500",
"F 	c #160000",
"G 	c #160300",
"H 	c #3A0000",
"I 	c #5D3000",
"J 	c #664400",
"K 	c #573D00",
"L 	c #2C0100",
"M 	c #140000",
"N 	c #563F00",
"O 	c #664600",
"P 	c #5E3400",
"Q 	c #170300",
"R 	c #312E2E",
"S 	c #210000",
"T 	c #4F2900",
"U 	c #634B00",
"V 	c #6A5E00",
"W 	c #6C6900",
"X 	c #6C6E00",
"Y 	c #6C7000",
"Z 	c #6C6A00",
"` 	c #6A6100",
" .	c #654F00",
"..	c #512D00",
"+.	c #312F2D",
"@.	c #444444",
"#.	c #1D1915",
"$.	c #4D3900",
"%.	c #625B00",
"&.	c #686A00",
"*.	c #6C6F00",
"=.	c #696C00",
"-.	c #636100",
";.	c #524300",
">.	c #4D4D4D",
",.	c #1C1B16",
"'.	c #2E2600",
").	c #454600",
"!.	c #585B00",
"~.	c #595A00",
"{.	c #464900",
"].	c #312E00",
"^.	c #190400",
"/.	c #1D1A17",
"(.	c #403F3F",
"_.	c #191609",
":.	c #140C00",
"<.	c #140700",
"[.	c #140800",
"}.	c #191400",
"|.	c #19170A",
"1.	c #424242",
"2.	c #525252",
"3.	c #575757",
"4.	c #585858",
"5.	c #565656",
"                                            ",
"                                            ",
"                                            ",
"                                            ",
"                                            ",
"                                            ",
"              . + + + + + + .               ",
"            + + + @ # # $ + + +             ",
"          + + % & * = = * & - + +           ",
"        . + ; > , ' ) ! ' , ~ @ + .         ",
"        + + { ] ^ / ( $ _ : < { % +         ",
"        + [ } | 1 2 3 4 5 6 7 } _ +         ",
"        8 9 0 a b c d e f @ g h i +         ",
"        j k l m n o o o + p q r s t         ",
"        u v w x y - z A B C x D E F         ",
"        G H I J K L ( M / N O P } Q         ",
"        R S T U V W X Y Z `  ...[ +.        ",
"        @.#.f $.%.&.Y *.=.-.;.5 #.@.        ",
"          >.,.F '.).!.~.{.].^./.>.          ",
"            >.(._.:.<.[.}.|.1.>.            ",
"                2.3.4.4.5.2.                ",
"                                            ",
"                                            "};
