/* XPM */
static char * maximize_active_xpm[] = {
"22 23 133 2",
"  	c None",
". 	c #202020",
"+ 	c #000000",
"@ 	c #170000",
"# 	c #251717",
"$ 	c #180000",
"% 	c #110000",
"& 	c #392020",
"* 	c #524847",
"= 	c #5D5656",
"- 	c #100000",
"; 	c #120000",
"> 	c #310400",
", 	c #4E3120",
"' 	c #5D4833",
") 	c #5E4C36",
"! 	c #5E4C35",
"~ 	c #320300",
"{ 	c #300000",
"] 	c #3E0300",
"^ 	c #4C1D00",
"/ 	c #502700",
"( 	c #502800",
"_ 	c #4F2600",
": 	c #4A1C00",
"< 	c #3E0500",
"[ 	c #220000",
"} 	c #3B0000",
"| 	c #480400",
"1 	c #4F1300",
"2 	c #531C00",
"3 	c #551F00",
"4 	c #542100",
"5 	c #531D00",
"6 	c #511400",
"7 	c #490700",
"8 	c #2A0000",
"9 	c #020000",
"0 	c #330000",
"a 	c #4A0500",
"b 	c #551600",
"c 	c #5B2100",
"d 	c #5E2A00",
"e 	c #603000",
"f 	c #5F2E00",
"g 	c #5D2400",
"h 	c #571800",
"i 	c #4D0A00",
"j 	c #340000",
"k 	c #190000",
"l 	c #3C0000",
"m 	c #561B00",
"n 	c #612A00",
"o 	c #653600",
"p 	c #663D00",
"q 	c #654100",
"r 	c #674300",
"s 	c #664100",
"t 	c #663900",
"u 	c #632B00",
"v 	c #591E00",
"w 	c #3E0000",
"x 	c #1A0000",
"y 	c #130000",
"z 	c #400300",
"A 	c #5D2900",
"B 	c #663A00",
"C 	c #674500",
"D 	c #684E00",
"E 	c #695200",
"F 	c #695300",
"G 	c #685000",
"H 	c #674600",
"I 	c #5F2D00",
"J 	c #430500",
"K 	c #160000",
"L 	c #160300",
"M 	c #3A0000",
"N 	c #5D3000",
"O 	c #664400",
"P 	c #685100",
"Q 	c #6A5A00",
"R 	c #6C6200",
"S 	c #6C6500",
"T 	c #6A5E00",
"U 	c #664600",
"V 	c #5E3400",
"W 	c #170300",
"X 	c #312E2E",
"Y 	c #210000",
"Z 	c #4F2900",
"` 	c #634B00",
" .	c #6C6900",
"..	c #6C6E00",
"+.	c #6C7000",
"@.	c #6C6A00",
"#.	c #6A6100",
"$.	c #654F00",
"%.	c #512D00",
"&.	c #312F2D",
"*.	c #444444",
"=.	c #1D1915",
"-.	c #260000",
";.	c #4D3900",
">.	c #625B00",
",.	c #686A00",
"'.	c #6C6F00",
").	c #696C00",
"!.	c #636100",
"~.	c #524300",
"{.	c #270000",
"].	c #4D4D4D",
"^.	c #1C1B16",
"/.	c #2E2600",
"(.	c #454600",
"_.	c #585B00",
":.	c #595A00",
"<.	c #464900",
"[.	c #312E00",
"}.	c #190400",
"|.	c #1D1A17",
"1.	c #403F3F",
"2.	c #191609",
"3.	c #140C00",
"4.	c #140700",
"5.	c #140800",
"6.	c #191400",
"7.	c #19170A",
"8.	c #424242",
"9.	c #525252",
"0.	c #575757",
"a.	c #585858",
"b.	c #565656",
"                                            ",
"                                            ",
"                                            ",
"                                            ",
"                                            ",
"                                            ",
"              . + + + + + + .               ",
"            + + + @ # # $ + + +             ",
"          + + % & * = = * & - + +           ",
"        . + ; > , ' ) ! ' , ~ @ + .         ",
"        + + { ] ^ / ( ( _ : < { % +         ",
"        + [ } | 1 2 3 4 5 6 7 } 8 +         ",
"        9 0 a b c d e e f g h i j +         ",
"        k l m n o p q r s t u v w x         ",
"        y z A B C D E F G H B I J K         ",
"        L M N O P Q R S T F U V } W         ",
"        X Y Z ` T  ...+.@.#.$.%.[ &.        ",
"        *.=.-.;.>.,.+.'.).!.~.{.=.*.        ",
"          ].^.K /.(._.:.<.[.}.|.].          ",
"            ].1.2.3.4.5.6.7.8.].            ",
"                9.0.a.a.b.9.                ",
"                                            ",
"                                            "};
