/* XPM */
static char * maximize_inactive_xpm[] = {
"22 23 72 1",
" 	c None",
".	c #202020",
"+	c #000000",
"@	c #1A1A1A",
"#	c #262626",
"$	c #4A4A4A",
"%	c #575757",
"&	c #111111",
"*	c #373737",
"=	c #4C4C4C",
"-	c #4E4E4E",
";	c #141414",
">	c #2D2D2D",
",	c #2E2E2E",
"'	c #2C2C2C",
")	c #252525",
"!	c #010101",
"~	c #161616",
"{	c #1F1F1F",
"]	c #272727",
"^	c #282828",
"/	c #171717",
"(	c #040404",
"_	c #181818",
":	c #222222",
"<	c #2A2A2A",
"[	c #323232",
"}	c #363636",
"|	c #343434",
"1	c #232323",
"2	c #0D0D0D",
"3	c #3B3B3B",
"4	c #414141",
"5	c #434343",
"6	c #454545",
"7	c #3E3E3E",
"8	c #101010",
"9	c #121212",
"0	c #313131",
"a	c #3F3F3F",
"b	c #474747",
"c	c #525252",
"d	c #505050",
"e	c #484848",
"f	c #333333",
"g	c #151515",
"h	c #070707",
"i	c #0A0A0A",
"j	c #464646",
"k	c #5E5E5E",
"l	c #606060",
"m	c #5A5A5A",
"n	c #383838",
"o	c #2F2F2F",
"p	c #4B4B4B",
"q	c #636363",
"r	c #686868",
"s	c #696969",
"t	c #646464",
"u	c #5D5D5D",
"v	c #4D4D4D",
"w	c #303030",
"x	c #444444",
"y	c #656565",
"z	c #5C5C5C",
"A	c #1B1B1B",
"B	c #555555",
"C	c #030303",
"D	c #090909",
"E	c #424242",
"F	c #585858",
"G	c #565656",
"                      ",
"                      ",
"                      ",
"                      ",
"                      ",
"                      ",
"       .++++++.       ",
"      ++++@@++++      ",
"     +++#$%%$#+++     ",
"    .++&*=--=*&++.    ",
"    +++;#>,,');+++    ",
"    ++!~{)]^#{/(++    ",
"    ++_:<[}}|'1@++    ",
"    +2#[345657[^8+    ",
"    +90ab-ccdeafg+    ",
"    hi}jd%klmcenih    ",
"    o+>pmqrstuvw+o    ",
"    x@+n%qssyz4+@x    ",
"     vA+14BB5<CAv     ",
"      va~D+!8~Ev      ",
"        c%FFGc        ",
"                      ",
"                      "};
