/* XPM */
static char * maximize_pressed_xpm[] = {
"22 23 165 2",
"  	c None",
". 	c #9C9C9C",
"+ 	c #646363",
"@ 	c #3D3232",
"# 	c #230F10",
"$ 	c #3B3232",
"% 	c #767575",
"& 	c #422D2D",
"* 	c #624244",
"= 	c #8E7576",
"- 	c #A39090",
"; 	c #A49090",
"> 	c #8F7576",
", 	c #644546",
"' 	c #412D2D",
") 	c #777474",
"! 	c #411C1D",
"~ 	c #835357",
"{ 	c #BE9D9C",
"] 	c #DACECC",
"^ 	c #E7DEDE",
"/ 	c #DACDCC",
"( 	c #825357",
"_ 	c #421C20",
": 	c #787575",
"< 	c #472529",
"[ 	c #7C3D37",
"} 	c #B87E6C",
"| 	c #D9B29C",
"1 	c #E8CEB5",
"2 	c #EAD2B8",
"3 	c #EAD2B7",
"4 	c #B97E6D",
"5 	c #813F39",
"6 	c #4F252A",
"7 	c #746D6D",
"8 	c #61201B",
"9 	c #AD5B38",
"0 	c #CA813F",
"a 	c #CE8E43",
"b 	c #A76B44",
"c 	c #81453F",
"d 	c #854840",
"e 	c #A46740",
"f 	c #CB8B42",
"g 	c #CA823F",
"h 	c #AC5B39",
"i 	c #732520",
"j 	c #746E6E",
"k 	c #5A3636",
"l 	c #8B4125",
"m 	c #C57027",
"n 	c #D88517",
"o 	c #A96631",
"p 	c #AC7E7C",
"q 	c #C3A0A0",
"r 	c #BF9A9A",
"s 	c #A67573",
"t 	c #A55F29",
"u 	c #D88717",
"v 	c #C57327",
"w 	c #9A482A",
"x 	c #661B12",
"y 	c #B3662B",
"z 	c #DB8719",
"A 	c #E99613",
"B 	c #8B4D42",
"C 	c #AF8383",
"D 	c #CBACAC",
"E 	c #C6A4A4",
"F 	c #A37171",
"G 	c #814236",
"H 	c #EC9814",
"I 	c #DE8B1A",
"J 	c #B6672C",
"K 	c #651C13",
"L 	c #7A3012",
"M 	c #C77B2B",
"N 	c #EA9B22",
"O 	c #F8AB2A",
"P 	c #78392E",
"Q 	c #703131",
"R 	c #713333",
"S 	c #6D2E2E",
"T 	c #743428",
"U 	c #FAAC2B",
"V 	c #EE9E21",
"W 	c #C97E2B",
"X 	c #7B3012",
"Y 	c #81543C",
"Z 	c #CC8127",
"` 	c #F2AA34",
" .	c #FCBD42",
"..	c #A86E3A",
"+.	c #7C3F3D",
"@.	c #935C5C",
"#.	c #945E5E",
"$.	c #793C39",
"%.	c #A16A35",
"&.	c #F4AE36",
"*.	c #D08427",
"=.	c #84543D",
"-.	c #8E7E74",
";.	c #C17B1B",
">.	c #F1B141",
",.	c #FBC954",
"'.	c #E8C058",
").	c #AB7C49",
"!.	c #81463E",
"~.	c #80473B",
"{.	c #A87A46",
"].	c #E7C258",
"^.	c #FBCB55",
"/.	c #F2B641",
"(.	c #C37B1B",
"_.	c #8F7E74",
":.	c #B1AEAD",
"<.	c #92662D",
"[.	c #DFA83D",
"}.	c #F7D15F",
"|.	c #FDE772",
"1.	c #FFF47D",
"2.	c #FFFA84",
"3.	c #FFFD85",
"4.	c #FFF57E",
"5.	c #FEEB73",
"6.	c #F9D561",
"7.	c #E1AD3D",
"8.	c #93672E",
"9.	c #B1AFAC",
"0.	c #C9C9C9",
"a.	c #98938D",
"b.	c #997522",
"c.	c #DBBB50",
"d.	c #F4E477",
"e.	c #FAF585",
"f.	c #FDFD91",
"g.	c #FDFC92",
"h.	c #FAF888",
"i.	c #F5EB79",
"j.	c #E2C755",
"k.	c #9D7B22",
"l.	c #D4D4D4",
"m.	c #97958F",
"n.	c #887A41",
"o.	c #AFA442",
"p.	c #D0CB67",
"q.	c #E6E480",
"r.	c #E7E381",
"s.	c #D2CF6A",
"t.	c #B5AE45",
"u.	c #8C7F44",
"v.	c #989490",
"w.	c #C4C3C3",
"x.	c #928F82",
"y.	c #88854F",
"z.	c #858135",
"A.	c #858235",
"B.	c #8E8C50",
"C.	c #929083",
"D.	c #C6C6C6",
"E.	c #D9D9D9",
"F.	c #E0E0E0",
"G.	c #E1E1E1",
"H.	c #DEDEDE",
"                                            ",
"                                            ",
"                                            ",
"                                            ",
"                                            ",
"                                            ",
"              . + @ # # $ + .               ",
"            % & * = - ; > , ' %             ",
"          ) ! ~ { ] ^ ^ / { ( _ :           ",
"        . < [ } | 1 2 3 1 | 4 5 6 .         ",
"        7 8 9 0 a b c d e f g h i j         ",
"        k l m n o p q r s t u v w k         ",
"        x y z A B C D E F G H I J K         ",
"        L M N O P Q R R S T U V W X         ",
"        Y Z `  ...+.@.#.$.%. .&.*.=.        ",
"        -.;.>.,.'.).!.~.{.].^./.(._.        ",
"        :.<.[.}.|.1.2.3.4.5.6.7.8.9.        ",
"        0.a.b.c.d.e.f.g.h.i.j.k.a.0.        ",
"          l.m.n.o.p.q.r.s.t.u.v.l.          ",
"            l.w.x.y.z.A.B.C.D.l.            ",
"                E.F.G.G.H.E.                ",
"                                            ",
"                                            "};
