/* XPM */
static char * menu_inactive_xpm[] = {
"27 23 91 1",
" 	c None",
".	c #858585",
"+	c #666666",
"@	c #3E3E3E",
"#	c #2D2D2D",
"$	c #3A3A3A",
"%	c #595959",
"&	c #868686",
"*	c #616161",
"=	c #4A4A4A",
"-	c #656565",
";	c #A1A1A1",
">	c #B2B2B2",
",	c #A6A6A6",
"'	c #787878",
")	c #464646",
"!	c #5C5C5C",
"~	c #848484",
"{	c #444444",
"]	c #5F5F5F",
"^	c #A5A5A5",
"/	c #D3D3D3",
"(	c #D9D9D9",
"_	c #D4D4D4",
":	c #B7B7B7",
"<	c #6C6C6C",
"[	c #424242",
"}	c #717171",
"|	c #686868",
"1	c #434343",
"2	c #7B7B7B",
"3	c #A2A2A2",
"4	c #B4B4B4",
"5	c #B5B5B5",
"6	c #A9A9A9",
"7	c #515151",
"8	c #5D5D5D",
"9	c #404040",
"0	c #676767",
"a	c #8B8B8B",
"b	c #9B9B9B",
"c	c #A8A8A8",
"d	c #A0A0A0",
"e	c #909090",
"f	c #747474",
"g	c #484848",
"h	c #AFAFAF",
"i	c #BABABA",
"j	c #BEBEBE",
"k	c #B6B6B6",
"l	c #8F8F8F",
"m	c #505050",
"n	c #5B5B5B",
"o	c #969696",
"p	c #C4C4C4",
"q	c #CFCFCF",
"r	c #D2D2D2",
"s	c #CACACA",
"t	c #B9B9B9",
"u	c #7C7C7C",
"v	c #989898",
"w	c #C1C1C1",
"x	c #DFDFDF",
"y	c #E6E6E6",
"z	c #E3E3E3",
"A	c #C7C7C7",
"B	c #A4A4A4",
"C	c #7E7E7E",
"D	c #A7A7A7",
"E	c #BBBBBB",
"F	c #DEDEDE",
"G	c #EFEFEF",
"H	c #F4F4F4",
"I	c #F2F2F2",
"J	c #E8E8E8",
"K	c #C8C8C8",
"L	c #929292",
"M	c #9D9D9D",
"N	c #949494",
"O	c #E0E0E0",
"P	c #EBEBEB",
"Q	c #E5E5E5",
"R	c #D0D0D0",
"S	c #AEAEAE",
"T	c #999999",
"U	c #9E9E9E",
"V	c #A3A3A3",
"W	c #ADADAD",
"X	c #C0C0C0",
"Y	c #CDCDCD",
"Z	c #CBCBCB",
"                           ",
"                           ",
"                           ",
"                           ",
"                           ",
"                           ",
"                           ",
"      .+@#########$%&      ",
"     *=-;>>>>>>>>>,')!     ",
"    ~{]^/(((((((((_:<[}    ",
"    |123455555555546~78    ",
"    90ab,666666666cdefg    ",
"    9&dhijjjjjjjjjjk^lm    ",
"    no5pq/////////rstd|    ",
"    uvwrxyyyyyyyyyz(ABC    ",
"    D&EFGHHHHHHHHHIJKLb    ",
"    wMNjOPPPPPPPPPQR3oE    ",
"     pSTUVVVVVVVVV3bWX     ",
"       sYYYYYYYYYYYZ       ",
"                           ",
"                           ",
"                           ",
"                           "};
