/* XPM */
static char * menu_pressed_xpm[] = {
"27 23 47 1",
" 	c None",
".	c #000000",
"+	c #161616",
"@	c #070707",
"#	c #060606",
"$	c #393939",
"%	c #404040",
"&	c #3A3A3A",
"*	c #1B1B1B",
"=	c #010101",
"-	c #181818",
";	c #191919",
">	c #0B0B0B",
",	c #0A0A0A",
"'	c #131313",
")	c #1E1E1E",
"!	c #222222",
"~	c #1A1A1A",
"{	c #282828",
"]	c #343434",
"^	c #383838",
"/	c #2E2E2E",
"(	c #1D1D1D",
"_	c #252525",
":	c #484848",
"<	c #515151",
"[	c #4D4D4D",
"}	c #2B2B2B",
"|	c #040404",
"1	c #090909",
"2	c #1F1F1F",
"3	c #464646",
"4	c #5D5D5D",
"5	c #636363",
"6	c #606060",
"7	c #535353",
"8	c #2C2C2C",
"9	c #494949",
"0	c #575757",
"a	c #4F4F4F",
"b	c #363636",
"c	c #121212",
"d	c #030303",
"e	c #111111",
"f	c #242424",
"g	c #323232",
"h	c #303030",
"                           ",
"                           ",
"                           ",
"                           ",
"                           ",
"                           ",
"                           ",
"      ...............      ",
"     ....+++++++++@...     ",
"    ...#$%%%%%%%%%&*...    ",
"    ...=-;;;;;;;;;->...    ",
"    ....@>>>>>>>>>,....    ",
"    ...')!!!!!!!!!!~#..    ",
"    ..;{]$$$$$$$$$^/(..    ",
"    .._^:<<<<<<<<<[%}|.    ",
"    1.234555555555678..    ",
"    _..!9000000000ab=.2    ",
"     {c..ddddddddd=.ef     ",
"       /gggggggggggh       ",
"                           ",
"                           ",
"                           ",
"                           "};
