/* XPM */
static char * menu_pressed_xpm[] = {
"27 23 87 1",
" 	c None",
".	c #616161",
"+	c #474747",
"@	c #2A2A2A",
"#	c #1E1E1E",
"$	c #272727",
"%	c #3D3D3D",
"&	c #626262",
"*	c #434343",
"=	c #323232",
"-	c #7C7C7C",
";	c #8F8F8F",
">	c #818181",
",	c #565656",
"'	c #2F2F2F",
")	c #404040",
"!	c #2E2E2E",
"~	c #424242",
"{	c #808080",
"]	c #BBBBBB",
"^	c #C4C4C4",
"/	c #BDBDBD",
"(	c #959595",
"_	c #4C4C4C",
":	c #2C2C2C",
"<	c #505050",
"[	c #494949",
"}	c #2D2D2D",
"|	c #595959",
"1	c #7D7D7D",
"2	c #919191",
"3	c #939393",
"4	c #848484",
"5	c #373737",
"6	c #2B2B2B",
"7	c #484848",
"8	c #676767",
"9	c #767676",
"0	c #838383",
"a	c #7B7B7B",
"b	c #6C6C6C",
"c	c #535353",
"d	c #313131",
"e	c #8B8B8B",
"f	c #999999",
"g	c #9E9E9E",
"h	c #949494",
"i	c #6B6B6B",
"j	c #3F3F3F",
"k	c #717171",
"l	c #A6A6A6",
"m	c #B5B5B5",
"n	c #BABABA",
"o	c #AEAEAE",
"p	c #989898",
"q	c #5A5A5A",
"r	c #737373",
"s	c #A2A2A2",
"t	c #CDCDCD",
"u	c #D8D8D8",
"v	c #D3D3D3",
"w	c #AAAAAA",
"x	c #7F7F7F",
"y	c #5B5B5B",
"z	c #828282",
"A	c #9A9A9A",
"B	c #CBCBCB",
"C	c #E6E6E6",
"D	c #EEEEEE",
"E	c #EAEAEA",
"F	c #DBDBDB",
"G	c #ABABAB",
"H	c #6D6D6D",
"I	c #787878",
"J	c #6F6F6F",
"K	c #CFCFCF",
"L	c #DFDFDF",
"M	c #D6D6D6",
"N	c #B7B7B7",
"O	c #8A8A8A",
"P	c #747474",
"Q	c #797979",
"R	c #7E7E7E",
"S	c #898989",
"T	c #A1A1A1",
"U	c #B2B2B2",
"V	c #B0B0B0",
"                           ",
"                           ",
"                           ",
"                           ",
"                           ",
"                           ",
"                           ",
"      .+@#########$%&      ",
"     *=+-;;;;;;;;;>,')     ",
"    .!~{]^^^^^^^^^/(_:<    ",
"    [}|1233333333324.5)    ",
"    6789>4444444440abcd    ",
"    6&aefggggggggggh{i5    ",
"    jk3lm]]]]]]]]]nopa[    ",
"    qrsntuuuuuuuuuv^wxy    ",
"    z&ABCDDDDDDDDDEFGH9    ",
"    sIJgKLLLLLLLLLMN1kA    ",
"     lOPQRRRRRRRRR19ST     ",
"       oUUUUUUUUUUUV       ",
"                           ",
"                           ",
"                           ",
"                           "};
