/* XPM */
static char * menu_inactive_xpm[] = {
"27 23 58 1",
" 	c None",
".	c #0D0D0D",
"+	c #000000",
"@	c #0E0E0E",
"#	c #242424",
"$	c #323232",
"%	c #282828",
"&	c #0B0B0B",
"*	c #272727",
"=	c #4D4D4D",
"-	c #525252",
";	c #363636",
">	c #252525",
",	c #333333",
"'	c #343434",
")	c #2A2A2A",
"!	c #131313",
"~	c #1F1F1F",
"{	c #232323",
"]	c #171717",
"^	c #2F2F2F",
"/	c #383838",
"(	c #3B3B3B",
"_	c #353535",
":	c #161616",
"<	c #1C1C1C",
"[	c #404040",
"}	c #494949",
"|	c #4C4C4C",
"1	c #454545",
"2	c #373737",
"3	c #1D1D1D",
"4	c #3E3E3E",
"5	c #575757",
"6	c #5D5D5D",
"7	c #5A5A5A",
"8	c #434343",
"9	c #262626",
"0	c #030303",
"a	c #292929",
"b	c #393939",
"c	c #565656",
"d	c #646464",
"e	c #686868",
"f	c #676767",
"g	c #5E5E5E",
"h	c #191919",
"i	c #212121",
"j	c #1A1A1A",
"k	c #616161",
"l	c #5C5C5C",
"m	c #4A4A4A",
"n	c #2E2E2E",
"o	c #1E1E1E",
"p	c #222222",
"q	c #3D3D3D",
"r	c #484848",
"s	c #464646",
"                           ",
"                           ",
"                           ",
"                           ",
"                           ",
"                           ",
"                           ",
"      .+++++++++++++@      ",
"     +++#$$$$$$$$$%+++     ",
"    &++*=---------=;+++    ",
"    +++>,''''''''',)&++    ",
"    ++!~%)))))))))){]++    ",
"    +@{^/((((((((((_*:+    ",
"    +<'[}=========|12{+    ",
"    +34|56666666667-890    ",
"    a@bcdeeeeeeeeefg8h~    ",
"    4ij(5kkkkkkkkklm><b    ",
"     [nop999999999>~nq     ",
"       1rrrrrrrrrrrs       ",
"                           ",
"                           ",
"                           ",
"                           "};
