/* XPM */
static char * title_2_inactive_xpm[] = {
"10 23 50 1",
" 	c None",
".	c #888888",
"+	c #E4D8E2",
"@	c #E3D7E1",
"#	c #E5D9E3",
"$	c #C1C3C5",
"%	c #C2C3C5",
"&	c #C2C3C4",
"*	c #C2C2C4",
"=	c #C2C2C5",
"-	c #C1C2C4",
";	c #C1C3C4",
">	c #C1C2C3",
",	c #C1C1C3",
"'	c #C0C1C3",
")	c #C0C2C3",
"!	c #C0C1C2",
"~	c #C0C0C2",
"{	c #BFC0C1",
"]	c #C0C1C1",
"^	c #BFC0C2",
"/	c #C0C0C1",
"(	c #BFBFC1",
"_	c #BFBFC0",
":	c #BFC0C0",
"<	c #BEBFC0",
"[	c #BEC0C1",
"}	c #BEBEC0",
"|	c #BEBEBF",
"1	c #BFBEC0",
"2	c #BEBFBF",
"3	c #BDBEBF",
"4	c #BDBEBE",
"5	c #BEBEBE",
"6	c #BDBDBE",
"7	c #BDBDBF",
"8	c #BEBDBE",
"9	c #BCBEBE",
"0	c #BDBDBD",
"a	c #BCBDBD",
"b	c #BCBDBE",
"c	c #BCBCBD",
"d	c #BDBCBD",
"e	c #BCBCBC",
"f	c #BDBDBC",
"g	c #BBBCBC",
"h	c #BCBBBC",
"i	c #BBBCBB",
"j	c #BCBCBB",
"k	c #BBBBBB",
"..........",
"++++@@++#+",
"$$%%%%%%%%",
"&&&*&*%=-;",
"---*-**-*;",
"->->>>--->",
",'>>,,,>,)",
"!!!',!!'''",
"!~~!'~!!!!",
"{~]^/^!/!{",
"{{^/{/{({{",
"_{(_(:{{{:",
"<<<__[___(",
"}<|}|1<1_<",
"||}||2||22",
"3433|54||4",
"635|435768",
"6669604006",
"60ab60ba0a",
"cd0dcce0fc",
"geeceeceee",
"hegeieegjh",
"kkgkiikjik"};
