/* XPM */
static char * title_5_inactive_xpm[] = {
"10 23 37 1",
" 	c #101010",
".	c #5B5159",
"+	c #5A5058",
"@	c #5C525A",
"#	c #3E3F41",
"$	c #3F3F40",
"%	c #3E3F40",
"&	c #3E3F3F",
"*	c #3E3E3F",
"=	c #3D3E3F",
"-	c #3D3F3F",
";	c #3D3D3F",
">	c #3C3D3E",
",	c #3D3E3E",
"'	c #3C3D3F",
")	c #3D3D3E",
"!	c #3C3C3E",
"~	c #3C3C3D",
"{	c #3C3D3D",
"]	c #3B3C3D",
"^	c #3B3D3E",
"/	c #3B3B3D",
"(	c #3B3B3C",
"_	c #3C3B3D",
":	c #3B3C3C",
"<	c #3A3B3C",
"[	c #3A3B3B",
"}	c #3B3B3B",
"|	c #3A3A3B",
"1	c #3A3A3C",
"2	c #3B3A3B",
"3	c #3A3A3A",
"4	c #393A3A",
"5	c #3A393A",
"6	c #393A39",
"7	c #3A3A39",
"8	c #393939",
"          ",
"....++..@.",
"##########",
"$$$$$$##%%",
"%%%$%$$%$%",
"%&%&&&%%%&",
"*=&&***&*-",
"====*=====",
"=;;==;====",
">;,')'=)=>",
">>')>)>!>>",
"~>!~!{>>>{",
"]]]~~^~~~!",
"/](/(_]_~]",
"((/((:((::",
"<[<<(}[(([",
"|<}([<}1|2",
"|||[|3[33|",
"|33||3|333",
"3333333333",
"4333333333",
"5343633475",
"8848668768"};
