/* XPM */
static char * top_right_inactive_xpm[] = {
"10 23 29 1",
" 	c None",
".	c #101010",
"+	c #585858",
"@	c #5A5A5B",
"#	c #5D6062",
"$	c #2F2F30",
"%	c #19191A",
"&	c #424242",
"*	c #444444",
"=	c #515151",
"-	c #58595A",
";	c #404040",
">	c #434343",
",	c #4F4F4F",
"'	c #393939",
")	c #414141",
"!	c #4D4D4D",
"~	c #2D2D2E",
"{	c #3F3F3F",
"]	c #464646",
"^	c #2E2E2E",
"/	c #474848",
"(	c #454547",
"_	c #414142",
":	c #3E3E3E",
"<	c #3D3D3D",
"[	c #3C3C3C",
"}	c #3B3B3B",
"|	c #3A3A3A",
"....      ",
"+@#$%.    ",
"&&*=-$.   ",
";;;;>,'.  ",
";;;;;)!~. ",
";;;;;;>,% ",
"{{{{{{{]^.",
"{{{{{{{)/.",
"{{{{{{{{(.",
"{{{{{{{{_.",
"{{{{{{{{{.",
":::::::::.",
":::::::::.",
"<<<<<<<<<.",
"<<<<<<<<<.",
"[[[[[[[[[.",
"[[[[[[[[[.",
"}}}}}}}}}.",
"}}}}}}}}}.",
"|||||||||.",
"|||||||||.",
"|||||||||.",
"'''''''''."};
