/* XPM */
static char * top_right_inactive_xpm[] = {
"10 23 32 1",
" 	c None",
".	c #888888",
"+	c #E1E1E1",
"@	c #E3E3E4",
"#	c #E7EAEC",
"$	c #AFAFB0",
"%	c #939394",
"&	c #C6C6C6",
"*	c #C9C9C9",
"=	c #D8D8D8",
"-	c #E1E2E3",
";	c #C4C4C4",
">	c #C8C8C8",
",	c #D6D6D6",
"'	c #BBBBBB",
")	c #C5C5C5",
"!	c #D4D4D4",
"~	c #ACACAD",
"{	c #C7C7C7",
"]	c #C3C3C3",
"^	c #CBCBCB",
"/	c #ADADAD",
"(	c #C2C2C2",
"_	c #CCCDCD",
":	c #CACACC",
"<	c #C5C5C6",
"[	c #C1C1C1",
"}	c #C0C0C0",
"|	c #BFBFBF",
"1	c #BEBEBE",
"2	c #BDBDBD",
"3	c #BCBCBC",
"....      ",
"+@#$%.    ",
"&&*=-$.   ",
";;;;>,'.  ",
";;;;;)!~. ",
";;;;;;{,% ",
"]]]]]]]^/.",
"((((((()_.",
"(((((((]:.",
"((((((((<.",
"(((((((((.",
"[[[[[[[[[.",
"[[[[[[[[[.",
"}}}}}}}}}.",
"}}}}}}}}}.",
"|||||||||.",
"|||||||||.",
"111111111.",
"111111111.",
"222222222.",
"222222222.",
"333333333.",
"'''''''''."};
